<svg xmlns="http://www.w3.org/2000/svg" xmlns:xlink="http://www.w3.org/1999/xlink" viewBox="0 0 132.86 27"><defs><clipPath id="clip-path"><rect width="132.86" height="27" fill="none"/></clipPath></defs><g id="Layer_2" data-name="Layer 2"><g id="Layer_1-2" data-name="Layer 1"><g clip-path="url(#clip-path)"><rect width="132.86" height="27" rx="4" fill="#4a863e"/></g><path d="M13.92,8.41a3.57,3.57,0,0,1,1.84,1.37,4.86,4.86,0,0,1,.77,1.74,8.76,8.76,0,0,1,.2,1.79A7.21,7.21,0,0,1,15.87,17a3.89,3.89,0,0,1-3.62,2H7.59V8.17h4.66A5.57,5.57,0,0,1,13.92,8.41ZM9.78,10.05v7h2.08a2.26,2.26,0,0,0,2.24-1.57,5.77,5.77,0,0,0,.34-2.06,5,5,0,0,0-.52-2.53,2.18,2.18,0,0,0-2.06-.88Z" fill="#fff"/><path d="M24.61,18a3.71,3.71,0,0,1-3.07,1.25A3.7,3.7,0,0,1,18.48,18a4.57,4.57,0,0,1-1-3,4.65,4.65,0,0,1,1-3,3.68,3.68,0,0,1,3.06-1.26A3.69,3.69,0,0,1,24.61,12a4.65,4.65,0,0,1,1,3A4.57,4.57,0,0,1,24.61,18Zm-1.67-1.15A3,3,0,0,0,23.43,15a3,3,0,0,0-.49-1.85,1.64,1.64,0,0,0-1.4-.65,1.68,1.68,0,0,0-1.41.65,3,3,0,0,0-.5,1.85,3,3,0,0,0,.5,1.85,1.68,1.68,0,0,0,1.41.65A1.64,1.64,0,0,0,22.94,16.84Z" fill="#fff"/><path d="M30.6,11h2.1l1.23,5.75L35.17,11h2.18L35,19H32.89l-1.26-5.82L30.37,19H28.2L26,11H28.2l1.24,5.73Z" fill="#fff"/><path d="M44.65,11.44a2.62,2.62,0,0,1,.79,2.15V19H43.3V14.11a2.2,2.2,0,0,0-.17-1A1.17,1.17,0,0,0,42,12.53a1.45,1.45,0,0,0-1.45.9,3.24,3.24,0,0,0-.2,1.22V19H38.23V11h2v1.16a3.5,3.5,0,0,1,.76-.88,2.59,2.59,0,0,1,1.63-.49A3.05,3.05,0,0,1,44.65,11.44Z" fill="#fff"/><path d="M49.23,19H47.14V8.17h2.09Z" fill="#fff"/><path d="M57.63,18a3.7,3.7,0,0,1-3.06,1.25A3.71,3.71,0,0,1,51.5,18a4.57,4.57,0,0,1-1-3,4.65,4.65,0,0,1,1-3,3.69,3.69,0,0,1,3.07-1.26A3.68,3.68,0,0,1,57.63,12a4.65,4.65,0,0,1,1,3A4.57,4.57,0,0,1,57.63,18ZM56,16.84A3,3,0,0,0,56.45,15,3,3,0,0,0,56,13.14a1.64,1.64,0,0,0-1.4-.65,1.68,1.68,0,0,0-1.41.65,3,3,0,0,0-.5,1.85,3,3,0,0,0,.5,1.85,1.68,1.68,0,0,0,1.41.65A1.64,1.64,0,0,0,56,16.84Z" fill="#fff"/><path d="M63,14.11a3.65,3.65,0,0,0,.83-.18.64.64,0,0,0,.45-.6.7.7,0,0,0-.35-.67,2.08,2.08,0,0,0-1-.19,1.31,1.31,0,0,0-1.06.37,1.48,1.48,0,0,0-.3.73h-2a3,3,0,0,1,.59-1.72A3.43,3.43,0,0,1,63,10.79a5.17,5.17,0,0,1,2.34.52,2,2,0,0,1,1,2v3.66c0,.25,0,.56,0,.92a1.1,1.1,0,0,0,.12.56.7.7,0,0,0,.31.24V19H64.55a2.13,2.13,0,0,1-.13-.46,3.14,3.14,0,0,1-.06-.48,4.57,4.57,0,0,1-1,.8,3.07,3.07,0,0,1-1.54.39A2.68,2.68,0,0,1,60,18.6a2.22,2.22,0,0,1-.71-1.76,2.27,2.27,0,0,1,1.14-2.13,5.1,5.1,0,0,1,1.85-.51Zm1.27,1a2.49,2.49,0,0,1-.4.2,3.49,3.49,0,0,1-.56.14l-.48.09a3.39,3.39,0,0,0-1,.28,1,1,0,0,0-.49.89.92.92,0,0,0,.3.77,1.14,1.14,0,0,0,.73.24,2.18,2.18,0,0,0,1.26-.39,1.67,1.67,0,0,0,.6-1.45Z" fill="#fff"/><path d="M72.13,11.11A2.56,2.56,0,0,1,73,12V8.19h2.12V19h-2V17.86a2.62,2.62,0,0,1-2.44,1.36,3,3,0,0,1-2.35-1.14,4.32,4.32,0,0,1-1-2.9A5,5,0,0,1,68.32,12a3.06,3.06,0,0,1,2.52-1.18A2.62,2.62,0,0,1,72.13,11.11Zm.51,5.69a2.9,2.9,0,0,0,.46-1.71A2.59,2.59,0,0,0,72.36,13a1.54,1.54,0,0,0-1-.38,1.48,1.48,0,0,0-1.35.69A3.25,3.25,0,0,0,69.54,15,3.22,3.22,0,0,0,70,16.8a1.47,1.47,0,0,0,1.32.66A1.54,1.54,0,0,0,72.64,16.8Z" fill="#fff"/><path d="M87.74,8.45a2.6,2.6,0,0,1,1,.75,3.68,3.68,0,0,1,.55.91,3.13,3.13,0,0,1,.2,1.14,3.23,3.23,0,0,1-.39,1.51,2.15,2.15,0,0,1-1.28,1.05,2,2,0,0,1,1,.85,3.54,3.54,0,0,1,.32,1.69v.73a5.35,5.35,0,0,0,.06,1,.89.89,0,0,0,.41.62V19H87.18c-.07-.24-.12-.43-.15-.58a7,7,0,0,1-.09-.93v-1a2,2,0,0,0-.36-1.38,1.83,1.83,0,0,0-1.29-.35h-2.2V19h-2.2V8.17H86A4.77,4.77,0,0,1,87.74,8.45Zm-4.66,1.6V13h2.43a2.51,2.51,0,0,0,1.08-.18,1.2,1.2,0,0,0,.64-1.21,1.34,1.34,0,0,0-.62-1.32,2.19,2.19,0,0,0-1-.19Z" fill="#fff"/><path d="M96.39,11.15a3.2,3.2,0,0,1,1.38,1.18A3.88,3.88,0,0,1,98.41,14a10.93,10.93,0,0,1,.07,1.58H92.66a1.92,1.92,0,0,0,.84,1.69,2.09,2.09,0,0,0,1.15.3,1.81,1.81,0,0,0,1.16-.37,1.79,1.79,0,0,0,.43-.55h2.13a2.59,2.59,0,0,1-.78,1.44,3.85,3.85,0,0,1-3,1.17,4.37,4.37,0,0,1-2.81-1,3.86,3.86,0,0,1-1.22-3.2,4.34,4.34,0,0,1,1.1-3.18,3.83,3.83,0,0,1,2.85-1.11A4.54,4.54,0,0,1,96.39,11.15ZM93.27,13a2.14,2.14,0,0,0-.56,1.23h3.6a1.77,1.77,0,0,0-.56-1.26,1.85,1.85,0,0,0-1.24-.43A1.66,1.66,0,0,0,93.27,13Z" fill="#fff"/><path d="M106,11.84a4.26,4.26,0,0,1,1,3,4.83,4.83,0,0,1-1,3.22,3.1,3.1,0,0,1-2.46,1.1,2.54,2.54,0,0,1-1.59-.47,3.1,3.1,0,0,1-.68-.77v4.16H99.17V11h2v1.18a3.7,3.7,0,0,1,.72-.82,2.73,2.73,0,0,1,1.67-.53A3.17,3.17,0,0,1,106,11.84Zm-1.61,1.5a1.48,1.48,0,0,0-1.38-.71,1.56,1.56,0,0,0-1.57,1.08,4,4,0,0,0-.23,1.45,2.27,2.27,0,0,0,.75,1.95,1.73,1.73,0,0,0,1,.33,1.53,1.53,0,0,0,1.35-.67,3.19,3.19,0,0,0,.46-1.79A3.09,3.09,0,0,0,104.34,13.34Z" fill="#fff"/><path d="M114.77,18a4.39,4.39,0,0,1-6.14,0,4.57,4.57,0,0,1-1-3,4.65,4.65,0,0,1,1-3,4.37,4.37,0,0,1,6.14,0,4.71,4.71,0,0,1,1,3A4.63,4.63,0,0,1,114.77,18Zm-1.67-1.15a3.08,3.08,0,0,0,.49-1.85,3.06,3.06,0,0,0-.49-1.85,1.85,1.85,0,0,0-2.82,0,3,3,0,0,0-.49,1.85,3,3,0,0,0,.49,1.85,1.85,1.85,0,0,0,2.82,0Z" fill="#fff"/><path d="M121.42,10.8h.18V13l-.35,0H121a1.72,1.72,0,0,0-1.69.82,3.21,3.21,0,0,0-.24,1.42V19H117V11h2v1.4a4.37,4.37,0,0,1,.84-1.1,2.33,2.33,0,0,1,1.52-.49Z" fill="#fff"/><path d="M121.7,12.54V11.06h1.12V8.83h2.06v2.23h1.3v1.48h-1.3v4.22c0,.33,0,.53.13.61s.33.12.76.12h.41V19l-1,0a2.69,2.69,0,0,1-2-.51,1.51,1.51,0,0,1-.35-1.11V12.54Z" fill="#fff"/></g></g></svg>